<?xml version="1.0" encoding="utf-8"?>
<!-- Generator: Adobe Illustrator 26.3.1, SVG Export Plug-In . SVG Version: 6.00 Build 0)  -->
<svg version="1.1" id="Layer_2" xmlns="http://www.w3.org/2000/svg" xmlns:xlink="http://www.w3.org/1999/xlink" x="0px" y="0px"
	 viewBox="0 0 695.56 125.29" style="enable-background:new 0 0 695.56 125.29;" xml:space="preserve">
<style type="text/css">
	.st0{fill:#67C3B7;}
	.st1{fill:#444444;}
</style>
<g>
	<path class="st0" d="M120.33,92.47c-16.19,0-28.26-12.57-28.26-28.76c0-16.09,12.07-28.66,28.26-28.66
		c16.19,0,28.36,12.57,28.36,28.66C148.69,79.9,136.52,92.47,120.33,92.47z M120.33,50.13c-7.34,0-12.37,6.24-12.37,13.58
		c0,7.44,5.03,13.68,12.37,13.68c7.44,0,12.37-6.24,12.37-13.68C132.7,56.36,127.77,50.13,120.33,50.13z"/>
	<path class="st0" d="M315.1,91.46c-2.31,0-4.12-1.81-4.12-4.12V55.76c0-3.12-1.41-5.63-4.53-5.63c-1.61,0-6.44,0.3-12.17,8.05
		v33.29h-16.8V36.05h12.47l2.61,8.75c6.94-7.84,12.97-9.76,19.21-9.76c9.65,0,15.99,7.34,15.99,18.1v34.2
		c0,2.31-1.91,4.12-4.22,4.12H315.1z"/>
	<path class="st0" d="M231.18,68.2c0.5,6.47,4.68,11.55,11.55,11.55c6.47,0,9.66-2.99,12.15-7.27l13.05,4.38
		c-4.78,9.36-13.15,15.74-27.19,15.74c-16.63,0-26.79-11.85-26.79-28.48c0-15.74,12.95-28.38,28.08-28.38
		c15.83,0,26.09,12.65,26.09,28.38c0,1.19-0.2,2.69-0.3,4.08H231.18z M231.77,57.45h19.42c-1-4.38-4.08-8.56-9.16-8.56
		C236.75,48.88,232.97,52.27,231.77,57.45z"/>
	<path class="st0" d="M169.54,14.93c2.29,0,4.08,1.89,4.08,4.18v73.5h-16.63V25.78h-3.88c-2.29,0-4.08-1.79-4.08-4.08v-2.59
		c0-2.29,1.79-4.18,4.08-4.18H169.54z"/>
	<path class="st0" d="M199.85,14.9c2.29,0,4.08,1.89,4.08,4.18v73.5H187.3V25.75h-3.88c-2.29,0-4.08-1.79-4.08-4.08v-2.59
		c0-2.29,1.79-4.18,4.08-4.18H199.85z"/>
	<g>
		<g>
			<path class="st1" d="M373.58,40.73c0-2.25,1.96-4.11,4.2-4.11c2.25,0,4.3,1.86,4.3,4.11v2.15c0,1.86-0.78,3.42-1.95,4.6L363.7,64
				l25.91,25.91c-1.37,1.56-3.23,2.54-5.47,2.54c-1.96,0-3.81-0.78-5.08-2.15l-20.82-20.92l-5.87,5.96v16.13h-8.11V18.35
				c0-2.25,1.76-4.11,4.01-4.11s4.11,1.86,4.11,4.11v48.1l21.21-21.9V40.73z"/>
			<path class="st1" d="M413.56,92.45c-15.35,0-24.15-12.61-24.15-27.96c0-15.35,8.8-27.86,24.15-27.86
				c15.35,0,24.15,12.51,24.15,27.86C437.71,79.84,428.91,92.45,413.56,92.45z M413.56,44.35c-10.75,0-16.03,9.39-16.03,20.14
				s5.28,20.24,16.03,20.24c10.75,0,16.03-9.48,16.03-20.24S424.32,44.35,413.56,44.35z"/>
			<path class="st1" d="M491.68,88.34c0,2.25-1.86,4.11-4.11,4.11c-2.25,0-4.11-1.86-4.11-4.11V52.66c0-4.99-2.44-8.6-7.82-8.6
				c-4.59,0-9.29,1.56-17.4,11.63v35.78h-8.11V37.61h4.79l2.93,9.97c6.84-8.9,13.2-10.95,19.06-10.95c9.19,0,14.76,6.06,14.76,15.15
				V88.34z"/>
			<path class="st1" d="M510.15,91.47V44.64h-11.05c0-4.5,2.44-7.04,6.94-7.04h4.11V24.8c0-2.25,1.86-4.11,4.11-4.11
				c2.25,0,4.11,1.86,4.11,4.11v12.81h13.3v7.04h-13.3v46.83H510.15z"/>
			<path class="st1" d="M570.57,40.93c0,2.44-1.86,4.2-4.3,4.2c-5.08,0-8.6,0.1-19.36,12.61v33.73h-8.11V37.61h4.79l2.93,11.83
				c9.97-11.93,13.98-12.81,19.75-12.81C568.71,36.63,570.57,38.48,570.57,40.93z"/>
			<path class="st1" d="M596.67,92.45c-15.35,0-24.15-12.61-24.15-27.96c0-15.35,8.8-27.86,24.15-27.86
				c15.35,0,24.15,12.51,24.15,27.86C620.82,79.84,612.02,92.45,596.67,92.45z M596.67,44.35c-10.75,0-16.03,9.39-16.03,20.14
				s5.28,20.24,16.03,20.24c10.75,0,16.03-9.48,16.03-20.24S607.43,44.35,596.67,44.35z"/>
			<path class="st1" d="M627.57,15.22h14.08v61.1c0,8.9,6.45,7.23,6.45,12.51c0,2.25-1.76,3.62-4.01,3.62
				c-4.89,0-10.56-5.96-10.56-14.96V21.96h-5.96V15.22z"/>
			<path class="st1" d="M651.91,15.22h14.08v61.1c0,8.9,6.45,7.23,6.45,12.51c0,2.25-1.76,3.62-4.01,3.62
				c-4.89,0-10.56-5.96-10.56-14.96V21.96h-5.96V15.22z"/>
		</g>
	</g>
	<g>
		<path class="st0" d="M43.08,110.44c0,2.31-1.91,4.12-4.22,4.12h-8.45c-2.31,0-4.12-1.81-4.12-4.12V53.77l13.78-12.22
			c3.72-3.82,10.66-6.54,17.6-6.54c13.88,0,27.25,12.77,27.25,28.96c0,16.19-14.18,28.46-27.25,28.46c-5.93,0-10.86-1.31-14.58-4.12
			V110.44z M55.65,49.79c-7.34,0-13.38,6.74-13.38,14.18c0,7.34,6.03,14.18,13.38,14.18s13.38-6.84,13.38-14.18
			C69.03,56.53,62.99,49.79,55.65,49.79z"/>
	</g>
	<path class="st1" d="M27.5,26.12c5.05,0,9,4.09,9,9c0,4.91-3.96,8.87-9,8.87c-4.91,0-8.87-3.96-8.87-8.87
		C18.63,30.21,22.59,26.12,27.5,26.12z"/>
</g>
</svg>
